<svg xmlns="http://www.w3.org/2000/svg" fill="none" viewBox="0 0 45 45">
  <path class="cls-1"  fill="#000" d="m22.5,45c-.45,0-.86-.14-1.2-.37L.99,31.15c-.22-.14-.42-.33-.59-.55,0,0,0,0,0,0H.4s-.05-.07-.07-.1C.1,30.13,0,29.72,0,29.32v-13.65c0-.4.1-.81.33-1.18.02-.03.03-.05.05-.08.17-.24.37-.43.6-.58L21.3.35c.69-.47,1.72-.47,2.41,0l20.31,13.48c.23.15.44.34.61.58.02.03.04.05.05.08.23.36.34.77.33,1.18v13.65c0,.4-.1.81-.33,1.17-.02.04-.05.07-.07.1-.16.23-.36.41-.59.55l-20.31,13.48c-.34.23-.76.37-1.2.37Zm2.13-14.7v8.59l14.41-9.56-6.43-4.33-7.98,5.3Zm-18.67-.97l14.41,9.56v-8.59l-7.98-5.3-6.43,4.33Zm10.25-6.9l6.28,4.17,6.28-4.17-6.28-4.23-6.28,4.23Zm20.23.02l4.29,2.89v-5.74l-4.29,2.85Zm-32.19-2.85v5.74l4.29-2.89-4.29-2.85Zm20.37-5.11l7.99,5.38,6.4-4.25-14.39-9.55v8.42Zm-18.65,1.13l6.4,4.25,7.99-5.38V6.08L5.98,15.63Z"/>
</svg>