<svg width="45" height="45" viewBox="0 0 45 45" fill="none" xmlns="http://www.w3.org/2000/svg">
<path d="M6.875 0C3.10028 0 0 3.10028 0 6.875V38.125C0 41.8997 3.10028 45 6.875 45H38.125C41.8997 45 45 41.8997 45 38.125V6.875C45 3.10028 41.8997 0 38.125 0H6.875ZM6.875 3.75H38.125C39.8728 3.75 41.25 5.12722 41.25 6.875V38.125C41.25 39.8728 39.8728 41.25 38.125 41.25H30V28.75H34.5312C35.1613 28.75 35.694 28.2788 35.7715 27.6538L36.2402 23.9038C36.2852 23.5488 36.1726 23.1924 35.9351 22.9224C35.6988 22.6536 35.3587 22.5 35 22.5H30V18.125C30 16.7463 31.1213 15.625 32.5 15.625H35C35.69 15.625 36.25 15.0662 36.25 14.375V10.1562C36.25 9.50875 35.7561 8.96863 35.1123 8.91113C35.0386 8.90488 33.275 8.75 31.0425 8.75C25.5337 8.75 22.5 12.0202 22.5 17.959V22.5H17.5C16.81 22.5 16.25 23.0588 16.25 23.75V27.5C16.25 28.1912 16.81 28.75 17.5 28.75H22.5V41.25H6.875C5.12722 41.25 3.75 39.8728 3.75 38.125V6.875C3.75 5.12722 5.12722 3.75 6.875 3.75Z" fill="black"/>
</svg>
