<svg width="45" height="45" viewBox="0 0 45 45" fill="none" xmlns="http://www.w3.org/2000/svg">
<path d="M22.5 0C10.0936 0 0 10.0936 0 22.5C0 34.9064 10.0936 45 22.5 45C34.9064 45 45 34.9064 45 22.5C45 10.0936 34.9064 0 22.5 0ZM22.5 3.375C33.0824 3.375 41.625 11.9176 41.625 22.5C41.625 31.1235 35.9516 38.3878 28.125 40.7834V35.0288C28.125 32.88 26.8867 31.0372 25.0972 30.1201C26.8372 29.7872 28.4529 29.1271 29.8102 28.1946C31.1675 27.2621 32.2272 26.0841 32.9013 24.7583C33.5755 23.4325 33.8447 21.9972 33.6866 20.5715C33.5285 19.1459 32.9476 17.7709 31.9922 16.5608C32.4912 15.0248 33.0486 12.3308 31.7241 10.2107C29.1705 10.2107 27.5228 11.9611 26.7363 13.0496C25.3919 12.6079 23.9533 12.3788 22.5 12.375C21.0457 12.3763 19.6056 12.6031 18.2593 13.043C17.4709 11.954 15.8245 10.2107 13.2759 10.2107C11.7559 12.6437 12.6955 15.2601 13.199 16.3279C12.179 17.5328 11.5394 18.9176 11.3351 20.3636C11.1307 21.8096 11.3677 23.2736 12.0258 24.6303C12.6838 25.9869 13.7432 27.1957 15.1132 28.153C16.4832 29.1103 18.1229 29.7875 19.8918 30.1267C18.4224 30.884 17.3219 32.2583 16.9849 33.9258H15.5061C14.047 33.9258 13.48 33.3329 12.6914 32.3328C11.9129 31.3326 11.0758 30.6606 10.0701 30.3816C9.52782 30.3242 9.16251 30.7367 9.63501 31.1023C11.2314 32.189 11.3416 33.9677 11.9817 35.1321C12.5644 36.1806 13.7584 37.125 15.1084 37.125H16.875V40.7834C9.04844 38.3878 3.375 31.1235 3.375 22.5C3.375 11.9176 11.9176 3.375 22.5 3.375Z" fill="black"/>
</svg>
