<svg width="45" height="45" viewBox="0 0 45 45" fill="none" xmlns="http://www.w3.org/2000/svg">
<path d="M13.6184 0C6.11809 0 0 6.11809 0 13.6184V31.3816C0 38.8809 6.11788 45 13.6184 45H31.3816C38.8811 45 45 38.8811 45 31.3816V13.6184C45 6.11788 38.8809 0 31.3816 0H13.6184ZM13.6184 3.55263H31.3816C36.9607 3.55263 41.4474 8.03817 41.4474 13.6184V31.3816C41.4474 36.9605 36.9605 41.4474 31.3816 41.4474H13.6184C8.03817 41.4474 3.55263 36.9607 3.55263 31.3816V13.6184C3.55263 8.03796 8.03796 3.55263 13.6184 3.55263ZM34.3421 8.28947C33.0336 8.28947 31.9737 9.34934 31.9737 10.6579C31.9737 11.9664 33.0336 13.0263 34.3421 13.0263C35.6507 13.0263 36.7105 11.9664 36.7105 10.6579C36.7105 9.34934 35.6507 8.28947 34.3421 8.28947ZM22.5 10.6579C15.9811 10.6579 10.6579 15.9811 10.6579 22.5C10.6579 29.0189 15.9811 34.3421 22.5 34.3421C29.0189 34.3421 34.3421 29.0189 34.3421 22.5C34.3421 15.9811 29.0189 10.6579 22.5 10.6579ZM22.5 14.2105C27.0985 14.2105 30.7895 17.9015 30.7895 22.5C30.7895 27.0985 27.0985 30.7895 22.5 30.7895C17.9015 30.7895 14.2105 27.0985 14.2105 22.5C14.2105 17.9015 17.9015 14.2105 22.5 14.2105Z" fill="black"/>
</svg>
