<svg width="45" height="45" viewBox="0 0 45 45" fill="none" xmlns="http://www.w3.org/2000/svg">
<path d="M6.875 0C3.10028 0 0 3.10028 0 6.875V38.125C0 41.8997 3.10028 45 6.875 45H38.125C41.8997 45 45 41.8997 45 38.125V6.875C45 3.10028 41.8997 0 38.125 0H6.875ZM6.875 3.75H38.125C39.8728 3.75 41.25 5.12722 41.25 6.875V38.125C41.25 39.8728 39.8728 41.25 38.125 41.25H6.875C5.12722 41.25 3.75 39.8728 3.75 38.125V6.875C3.75 5.12722 5.12722 3.75 6.875 3.75ZM11.875 8.75C11.0462 8.75 10.2513 9.07924 9.66529 9.66529C9.07924 10.2513 8.75 11.0462 8.75 11.875C8.75 12.7038 9.07924 13.4987 9.66529 14.0847C10.2513 14.6708 11.0462 15 11.875 15C12.7038 15 13.4987 14.6708 14.0847 14.0847C14.6708 13.4987 15 12.7038 15 11.875C15 11.0462 14.6708 10.2513 14.0847 9.66529C13.4987 9.07924 12.7038 8.75 11.875 8.75ZM10 17.5C9.30875 17.5 8.75 18.0588 8.75 18.75V35C8.75 35.6912 9.30875 36.25 10 36.25H13.75C14.4412 36.25 15 35.6912 15 35V18.75C15 18.0588 14.4412 17.5 13.75 17.5H10ZM18.75 17.5C18.0588 17.5 17.5 18.0588 17.5 18.75V35C17.5 35.6912 18.0588 36.25 18.75 36.25H22.5C23.1912 36.25 23.75 35.6912 23.75 35V25.625C23.75 23.9013 25.1513 22.5 26.875 22.5C28.5987 22.5 30 23.9013 30 25.625V35C30 35.6912 30.5588 36.25 31.25 36.25H35C35.6912 36.25 36.25 35.6912 36.25 35V25C36.25 20.8638 32.8862 17.5 28.75 17.5C26.8275 17.5 25.0788 18.2325 23.75 19.4263V18.75C23.75 18.0588 23.1912 17.5 22.5 17.5H18.75Z" fill="black"/>
</svg>
