<?xml version="1.0" standalone="no"?>
<svg version="1.0" xmlns="http://www.w3.org/2000/svg"
 width="100.000000pt" height="100.000000pt" viewBox="0 0 100.000000 100.000000"
 preserveAspectRatio="xMidYMid meet">

<g transform="translate(0.000000,100.000000) scale(0.100000,-0.100000)"
fill="#000000" stroke="none">
<path d="M358 937 c-187 -65 -304 -219 -316 -414 -11 -197 108 -380 296 -454
82 -33 242 -33 324 0 125 49 231 158 275 283 25 73 25 223 0 296 -44 125 -151
235 -275 283 -89 33 -218 36 -304 6z m118 -215 c-3 -3 -34 -1 -68 4 -59 8 -63
10 -60 34 4 38 53 112 92 138 l35 23 3 -97 c1 -53 0 -99 -2 -102z m134 127
c27 -38 56 -106 48 -114 -1 -2 -33 -6 -70 -10 l-68 -7 0 101 0 102 30 -16 c17
-9 44 -34 60 -56z m-240 46 c0 -2 -13 -26 -30 -52 -16 -26 -30 -52 -30 -57 0
-6 -4 -17 -9 -25 -7 -11 -17 -10 -62 4 l-53 18 39 34 c51 45 145 95 145 78z
m330 -26 c32 -17 70 -43 85 -59 l27 -28 -52 -17 c-44 -15 -54 -15 -61 -4 -5 8
-9 19 -9 25 0 5 -13 31 -30 57 -44 70 -43 70 40 26z m-475 -141 c53 -20 56
-23 51 -49 -3 -16 -8 -58 -12 -94 l-7 -65 -90 0 -89 0 7 48 c9 60 62 182 79
182 2 0 30 -10 61 -22z m652 -48 c18 -36 35 -86 39 -112 l6 -48 -89 0 -90 0
-7 65 c-4 36 -9 78 -12 94 -5 26 -2 29 48 49 29 11 58 20 63 18 6 -1 24 -31
42 -66z m-464 5 l67 -7 0 -79 0 -79 -91 0 -92 0 7 63 c11 95 18 119 31 114 6
-3 42 -8 78 -12z m270 -12 c3 -16 9 -56 13 -90 l7 -63 -92 0 -91 0 0 79 0 78
73 10 c39 6 75 11 78 12 4 0 9 -11 12 -26z m-419 -258 c4 -36 9 -78 12 -94 5
-26 3 -29 -52 -49 -39 -14 -62 -18 -70 -11 -19 16 -62 121 -69 172 l-7 47 89
0 90 0 7 -65z m216 -14 l0 -79 -67 -7 c-36 -4 -72 -9 -78 -12 -13 -5 -20 19
-31 115 l-7 62 92 0 91 0 0 -79z m216 17 c-11 -96 -18 -120 -31 -115 -6 3 -42
8 -78 12 l-67 7 0 79 0 79 91 0 92 0 -7 -62z m219 15 c-7 -52 -50 -156 -70
-173 -9 -7 -29 -4 -70 12 l-57 22 6 35 c3 20 9 62 13 94 l6 57 90 0 89 0 -7
-47z m-435 -253 l0 -101 -29 16 c-45 23 -111 121 -111 164 0 9 35 16 108 19
l32 2 0 -100z m173 81 c21 -21 -54 -140 -104 -166 l-29 -16 0 102 0 102 63 -7
c34 -4 66 -11 70 -15z m-344 -43 c7 -18 23 -50 37 -71 14 -22 23 -41 21 -44
-8 -8 -100 44 -142 80 l-39 34 44 16 c63 22 67 21 79 -15z m455 16 l47 -16
-26 -28 c-29 -30 -143 -95 -151 -87 -3 3 6 22 20 44 14 21 30 53 37 71 13 37
11 37 73 16z"/>
</g>
</svg>
