<svg width="45" height="45" viewBox="0 0 45 45" fill="none" xmlns="http://www.w3.org/2000/svg">
<path d="M15.5849 1.02088C6.38264 4.21951 0.6251 11.7978 0.034583 21.3937C-0.506724 31.088 5.34924 40.0934 14.6007 43.7349C18.6359 45.3589 26.5094 45.3589 30.5446 43.7349C36.6959 41.3237 41.9121 35.9598 44.0773 29.8086C45.3076 26.2163 45.3076 18.8348 44.0773 15.2425C41.9121 9.09128 36.6466 3.6782 30.5446 1.31613C26.165 -0.307787 19.8169 -0.455417 15.5849 1.02088ZM21.3916 11.601C21.244 11.7486 19.7185 11.6502 18.0454 11.4041C15.142 11.0105 14.9451 10.912 15.0928 9.731C15.2896 7.86103 17.7009 4.21951 19.6201 2.94006L21.3424 1.80823L21.49 6.58158C21.5392 9.1897 21.49 11.4533 21.3916 11.601ZM27.9857 5.35133C29.3144 7.22131 30.7415 10.5676 30.3478 10.9612C30.2986 11.0597 28.7239 11.2565 26.9031 11.4533L23.5568 11.7978V1.80823L25.0331 2.59559C25.8697 3.03848 27.1984 4.26872 27.9857 5.35133ZM16.1754 3.08769C16.1754 3.18611 15.5357 4.36714 14.6991 5.64659C13.9117 6.92605 13.2228 8.2055 13.2228 8.45155C13.2228 8.74681 13.026 9.28812 12.7799 9.68179C12.4354 10.2231 11.9433 10.1739 9.72891 9.48495L7.12079 8.59918L9.03997 6.92605C11.5497 4.71161 16.1754 2.25112 16.1754 3.08769ZM32.4146 4.36714C33.9893 5.20371 35.8593 6.48316 36.5974 7.27052L37.9261 8.64839L35.3672 9.48495C33.202 10.2231 32.7099 10.2231 32.3654 9.68179C32.1193 9.28812 31.9225 8.74681 31.9225 8.45155C31.9225 8.2055 31.2828 6.92605 30.4462 5.64659C28.281 2.20191 28.3302 2.20191 32.4146 4.36714ZM9.03997 11.3057C11.6481 12.2899 11.7957 12.4375 11.5497 13.717C11.402 14.5043 11.156 16.5712 10.9591 18.3427L10.6147 21.5413H1.80613L2.1506 19.1793C2.59349 16.2267 5.20161 10.2231 6.03817 10.2231C6.13659 10.2231 7.51447 10.7152 9.03997 11.3057ZM41.1247 13.6678C42.0105 15.4393 42.8471 17.8998 43.0439 19.1793L43.3392 21.5413H34.5306L34.1862 18.3427C33.9893 16.5712 33.7433 14.5043 33.5956 13.717C33.3496 12.4375 33.4972 12.2899 35.9577 11.3057C37.3848 10.7644 38.8119 10.3215 39.0579 10.4199C39.3532 10.4691 40.239 11.9454 41.1247 13.6678ZM18.2914 13.4217L21.5885 13.7662V21.5413H12.5831L12.9275 18.4411C13.4688 13.7662 13.8133 12.5852 14.453 12.8312C14.7483 12.9788 16.5199 13.2249 18.2914 13.4217ZM31.578 14.0123C31.7257 14.7996 32.0209 16.768 32.2178 18.4411L32.5622 21.5413H23.5568V13.8154L27.1492 13.3233C29.0683 13.0281 30.8399 12.782 30.9875 12.7328C31.1844 12.7328 31.4304 13.2741 31.578 14.0123ZM10.9591 26.7084C11.156 28.4799 11.402 30.5467 11.5497 31.3341C11.7957 32.6135 11.6973 32.7612 8.99076 33.7454C7.07158 34.4343 5.93975 34.6311 5.54608 34.2867C4.61109 33.4993 2.49507 28.3323 2.1506 25.8226L1.80613 23.5097H10.6147L10.9591 26.7084ZM21.5885 31.2849L18.2914 31.6293C16.5199 31.8262 14.7483 32.0722 14.453 32.2199C13.8133 32.4659 13.4688 31.2849 12.9275 26.5607L12.5831 23.5097H21.5885V31.2849ZM32.2178 26.5607C31.6765 31.2849 31.332 32.4659 30.6923 32.2199C30.397 32.0722 28.6255 31.8262 26.8539 31.6293L23.5568 31.2849V23.5097H32.5622L32.2178 26.5607ZM42.9947 25.8226C42.6502 28.3815 40.5342 33.4993 39.55 34.3359C39.1071 34.6804 38.1229 34.5327 36.1053 33.7454L33.3004 32.6628L33.5956 30.9404C33.7433 29.9562 34.0385 27.8894 34.2354 26.3147L34.5306 23.5097H43.3392L42.9947 25.8226ZM21.5885 43.2428L20.1614 42.4555C17.9469 41.3237 14.6991 36.5011 14.6991 34.3851C14.6991 33.9422 16.4214 33.5977 20.0137 33.4501L21.5885 33.3517V43.2428ZM30.1017 34.2867C31.1351 35.3201 27.4444 41.176 24.9839 42.4555L23.5568 43.2428V33.2041L26.6571 33.5485C28.3302 33.7454 29.9049 34.0898 30.1017 34.2867ZM13.1736 36.4027C13.5181 37.2885 14.3054 38.8632 14.9943 39.8966C15.6833 40.9792 16.1262 41.9142 16.0278 42.0618C15.6341 42.4555 11.1068 39.8966 9.03997 38.125L7.12079 36.4519L9.28602 35.6645C12.3862 34.5819 12.5831 34.6311 13.1736 36.4027ZM35.564 35.6153L37.8769 36.4027L36.5974 37.7806C35.1703 39.2569 29.5604 42.4555 29.1668 42.0618C29.0191 41.9142 29.462 40.9792 30.151 39.8966C30.8399 38.8632 31.6272 37.2885 31.9717 36.4027C32.6114 34.5819 32.513 34.5819 35.564 35.6153Z" fill="white"/>
</svg>
