<svg width="45" height="45" viewBox="0 0 45 45" fill="none" xmlns="http://www.w3.org/2000/svg">
<path d="M22.5 0C10.0938 0 0 10.0938 0 22.5C0 26.1847 0.970546 29.6289 2.54443 32.6997L0.105469 41.4316C-0.462603 43.4605 1.54342 45.4664 3.57275 44.8989L12.3113 42.46C15.3796 44.0305 18.8187 45 22.5 45C34.9062 45 45 34.9062 45 22.5C45 10.0938 34.9062 0 22.5 0ZM22.5 3.375C33.0821 3.375 41.625 11.9179 41.625 22.5C41.625 33.0821 33.0821 41.625 22.5 41.625C19.1232 41.625 15.9644 40.7469 13.21 39.2124C12.8217 38.996 12.3637 38.9415 11.9355 39.0608L3.62549 41.3789L5.9458 33.0732C6.06567 32.6444 6.01117 32.1855 5.79419 31.7966C4.25661 29.0402 3.375 25.8801 3.375 22.5C3.375 11.9179 11.9179 3.375 22.5 3.375ZM14.8953 12.3772C14.5364 12.3772 13.9565 12.5118 13.4626 13.0496C12.9699 13.5851 11.5818 14.8838 11.5818 17.5276C11.5818 20.1713 13.5058 22.7245 13.7747 23.0845C14.0424 23.4411 17.4908 29.0413 22.9526 31.1946C27.4909 32.9833 28.4139 32.6271 29.3994 32.5371C30.3849 32.4494 32.5793 31.2394 33.0271 29.9839C33.4748 28.7284 33.4751 27.6545 33.3435 27.4329C33.2096 27.209 32.8507 27.0733 32.313 26.8044C31.7764 26.5356 29.1363 25.2365 28.6436 25.0576C28.1508 24.8787 27.7906 24.7879 27.4329 25.3257C27.0751 25.8634 26.0461 27.0729 25.7322 27.4307C25.4183 27.7907 25.1054 27.8358 24.5676 27.5669C24.0288 27.2958 22.2999 26.7298 20.2456 24.8994C18.6481 23.4763 17.5734 21.7172 17.2595 21.1794C16.9468 20.6439 17.2258 20.3496 17.4946 20.083C17.7365 19.8423 18.0322 19.4565 18.301 19.1426C18.5676 18.8287 18.6561 18.606 18.835 18.2483C19.0138 17.8917 18.9249 17.5767 18.791 17.3079C18.6571 17.039 17.6124 14.3808 17.1343 13.3176C16.7327 12.4244 16.3094 12.405 15.9258 12.3904C15.613 12.378 15.253 12.3772 14.8953 12.3772Z" fill="black"/>
</svg>
