<svg width="45" height="33" viewBox="0 0 45 33" fill="none" xmlns="http://www.w3.org/2000/svg">
<path d="M22.3541 0C15.8571 0 9.82056 0.462909 6.37605 1.18253C6.36871 1.18447 6.36139 1.18647 6.35408 1.18852C3.759 1.77002 1.31542 3.62887 0.801001 6.53985C0.80032 6.54384 0.799654 6.54783 0.799004 6.55183C0.403809 8.89798 0 11.9564 0 16.3636C0 20.7625 0.405194 23.7398 0.904872 26.2093C1.43189 29.0344 3.81908 30.9495 6.45395 31.5387C6.46656 31.5422 6.47921 31.5455 6.49191 31.5487C10.0868 32.257 15.9529 32.7272 22.45 32.7272C28.9471 32.7272 34.8163 32.257 38.4121 31.5487C38.4248 31.5455 38.4375 31.5422 38.4501 31.5387C41.0451 30.9572 43.4887 29.0983 44.0031 26.1874C44.0045 26.18 44.0059 26.1727 44.0071 26.1654C44.3963 23.7714 44.9005 20.7159 44.9999 16.3017C45 16.2904 45 16.279 44.9999 16.2677C44.9999 11.851 44.4944 8.77363 44.0011 6.3361C43.4783 3.50495 41.0884 1.58469 38.4501 0.99476C38.4098 0.985799 38.3691 0.978469 38.3282 0.972787C34.8201 0.479607 28.8522 0 22.3541 0ZM22.3541 3.06818C28.6545 3.06818 34.4926 3.54002 37.8069 4.00101C39.4358 4.37546 40.73 5.51315 40.9849 6.89341C40.9862 6.90207 40.9875 6.91073 40.9889 6.91937C41.4648 9.26803 41.9278 12.0606 41.9297 16.2457C41.8342 20.4443 41.3702 23.2615 40.9809 25.656C40.7151 27.1477 39.469 28.1601 37.7929 28.5404C34.5734 29.172 28.7816 29.659 22.45 29.659C16.1174 29.659 10.3271 29.1701 7.10914 28.5384C5.47415 28.1671 4.1747 27.026 3.91911 25.642C3.91719 25.6334 3.91519 25.6247 3.91312 25.6161C3.44252 23.2938 3.06818 20.5861 3.06818 16.3636C3.06818 12.1486 3.4419 9.32929 3.82124 7.07518C4.08554 5.57956 5.33499 4.56462 7.01525 4.18478C9.99639 3.56341 16.0158 3.06818 22.3541 3.06818ZM18.8805 7.69441C17.0472 7.7539 15.3409 9.23045 15.3409 11.236V20.4705C15.3409 23.1445 18.3747 24.8787 20.6982 23.5666V23.5646L28.87 18.9484C31.2103 17.6262 31.2103 14.0782 28.87 12.7561L20.6982 8.13985C20.1173 7.81184 19.4916 7.67458 18.8805 7.69441ZM18.8924 10.7186C18.9846 10.7236 19.0853 10.7525 19.1881 10.8105L27.3599 15.4288C27.7749 15.6632 27.7749 16.0433 27.3599 16.2777L19.1881 20.894C18.7768 21.1262 18.4091 20.9096 18.4091 20.4705V11.236C18.4091 11.0164 18.5012 10.8528 18.6448 10.7726C18.7165 10.7325 18.8003 10.7136 18.8924 10.7186Z" fill="black"/>
</svg>
