<svg width="34" height="27" viewBox="0 0 34 27" fill="none" xmlns="http://www.w3.org/2000/svg">
<g filter="url(#filter0_dii_2_321)">
<path d="M16.9028 0.5C12.5714 0.5 8.54704 0.811179 6.2507 1.29492C6.24581 1.29623 6.24093 1.29757 6.23605 1.29895C4.506 1.68985 2.87695 2.93941 2.534 4.89624C2.53355 4.89892 2.5331 4.90161 2.53267 4.9043C2.26921 6.48143 2 8.53735 2 11.5C2 14.457 2.27013 16.4585 2.60325 18.1185C2.9546 20.0176 4.54605 21.305 6.30264 21.701C6.31104 21.7034 6.31948 21.7056 6.32794 21.7078C8.72456 22.1839 12.6353 22.5 16.9667 22.5C21.2981 22.5 25.2109 22.1839 27.6081 21.7078C27.6165 21.7056 27.625 21.7034 27.6334 21.701C29.3634 21.3101 30.9925 20.0606 31.3354 18.1038C31.3364 18.0988 31.3372 18.0939 31.3381 18.089C31.5975 16.4797 31.9337 14.4257 31.9999 11.4584C32 11.4508 32 11.4432 31.9999 11.4355C31.9999 8.46654 31.6629 6.39784 31.3341 4.75928C30.9855 2.85611 29.3922 1.56527 27.6334 1.1687C27.6065 1.16268 27.5794 1.15775 27.5521 1.15393C25.2134 0.822403 21.2348 0.5 16.9028 0.5ZM16.9028 2.5625C21.103 2.5625 24.9951 2.87969 27.2046 3.18958C28.2905 3.44129 29.1533 4.20607 29.3233 5.13391C29.3241 5.13974 29.325 5.14556 29.3259 5.15137C29.6432 6.73019 29.9519 8.60743 29.9532 11.4208C29.8894 14.2431 29.5801 16.137 29.3206 17.7466C29.1434 18.7493 28.3127 19.4299 27.1953 19.6855C25.049 20.1101 21.1877 20.4375 16.9667 20.4375C12.7449 20.4375 8.88473 20.1089 6.73943 19.6842C5.64943 19.4346 4.78313 18.6675 4.61274 17.7372C4.61146 17.7314 4.61013 17.7255 4.60875 17.7197C4.29502 16.1586 4.04545 14.3385 4.04545 11.5C4.04545 8.6666 4.2946 6.77137 4.54749 5.2561C4.72369 4.25071 5.55666 3.56845 6.67684 3.31311C8.66426 2.89541 12.6772 2.5625 16.9028 2.5625ZM14.587 5.67236C13.3648 5.71235 12.2273 6.70493 12.2273 8.0531V14.2607C12.2273 16.0583 14.2498 17.224 15.7988 16.342V16.3407L21.2467 13.2375C22.8068 12.3488 22.8068 9.96373 21.2467 9.07495L15.7988 5.9718C15.4116 5.7513 14.9944 5.65903 14.587 5.67236ZM14.595 7.70532C14.6564 7.70868 14.7235 7.72806 14.7921 7.76709L20.2399 10.8716C20.5166 11.0292 20.5166 11.2847 20.2399 11.4423L14.7921 14.5454C14.5178 14.7015 14.2727 14.5559 14.2727 14.2607V8.0531C14.2727 7.90551 14.3342 7.7955 14.4298 7.74158C14.4777 7.71462 14.5335 7.70196 14.595 7.70532Z" fill="#FF6600"/>
</g>
<defs>
<filter id="filter0_dii_2_321" x="0" y="-0.5" width="34" height="27" filterUnits="userSpaceOnUse" color-interpolation-filters="sRGB">
<feFlood flood-opacity="0" result="BackgroundImageFix"/>
<feColorMatrix in="SourceAlpha" type="matrix" values="0 0 0 0 0 0 0 0 0 0 0 0 0 0 0 0 0 0 127 0" result="hardAlpha"/>
<feOffset dy="2"/>
<feGaussianBlur stdDeviation="1"/>
<feComposite in2="hardAlpha" operator="out"/>
<feColorMatrix type="matrix" values="0 0 0 0 0 0 0 0 0 0 0 0 0 0 0 0 0 0 0.32 0"/>
<feBlend mode="normal" in2="BackgroundImageFix" result="effect1_dropShadow_2_321"/>
<feBlend mode="normal" in="SourceGraphic" in2="effect1_dropShadow_2_321" result="shape"/>
<feColorMatrix in="SourceAlpha" type="matrix" values="0 0 0 0 0 0 0 0 0 0 0 0 0 0 0 0 0 0 127 0" result="hardAlpha"/>
<feOffset dy="1"/>
<feGaussianBlur stdDeviation="0.5"/>
<feComposite in2="hardAlpha" operator="arithmetic" k2="-1" k3="1"/>
<feColorMatrix type="matrix" values="0 0 0 0 1 0 0 0 0 1 0 0 0 0 1 0 0 0 0.3 0"/>
<feBlend mode="normal" in2="shape" result="effect2_innerShadow_2_321"/>
<feColorMatrix in="SourceAlpha" type="matrix" values="0 0 0 0 0 0 0 0 0 0 0 0 0 0 0 0 0 0 127 0" result="hardAlpha"/>
<feOffset dy="-1"/>
<feGaussianBlur stdDeviation="0.5"/>
<feComposite in2="hardAlpha" operator="arithmetic" k2="-1" k3="1"/>
<feColorMatrix type="matrix" values="0 0 0 0 0 0 0 0 0 0 0 0 0 0 0 0 0 0 0.35 0"/>
<feBlend mode="normal" in2="effect2_innerShadow_2_321" result="effect3_innerShadow_2_321"/>
</filter>
</defs>
</svg>
